<svg version="1.1" id="Layer_1" xmlns="http://www.w3.org/2000/svg" xmlns:xlink="http://www.w3.org/1999/xlink" x="0px" y="0px"
	 width="100%" viewBox="0 0 283 300" enable-background="new 0 0 283 300" xml:space="preserve">
<path fill="#B52E31" opacity="1.000000" stroke="none" 
	d="
M284.000000,49.000000 
	C284.000000,54.022091 284.000000,59.044186 283.589874,64.461380 
	C282.449310,69.794693 281.690125,74.728828 280.993713,79.671829 
	C278.660645,96.232132 276.168884,112.772850 274.083832,129.364532 
	C272.158508,144.685455 270.798920,160.076721 268.971100,175.410873 
	C266.776276,193.823700 264.446869,212.222458 261.888245,230.587265 
	C261.599731,232.658264 259.738312,234.782806 258.079132,236.309799 
	C256.564636,237.703644 254.295944,238.250427 252.425827,239.289642 
	C231.627060,250.847717 210.858734,262.460663 190.045563,273.992706 
	C176.543747,281.473663 162.950134,288.789459 149.479828,296.326172 
	C147.424866,297.475952 145.815475,299.422150 144.000000,301.000000 
	C143.250000,301.000000 142.500000,301.000000 141.369431,300.531342 
	C140.970535,261.783386 140.952209,223.504074 141.402390,185.135803 
	C153.700623,185.034607 165.532013,185.127777 177.358917,184.938858 
	C180.457397,184.889359 182.061691,185.742645 183.278336,188.738785 
	C187.222519,198.451675 192.220566,207.789429 195.491318,217.707428 
	C198.478958,226.766983 203.062134,231.109543 212.942825,229.425034 
	C217.122208,228.712509 221.570190,229.594193 225.897018,229.718277 
	C227.603500,229.767227 229.312561,229.726288 231.617279,229.726288 
	C230.650101,227.437088 230.122330,226.060089 229.497894,224.728439 
	C209.497711,182.077667 189.509445,139.421280 169.470764,96.788597 
	C159.986923,76.611534 150.403946,56.481052 140.880356,35.840378 
	C140.929886,23.900862 140.964951,12.450431 141.000000,1.000000 
	C143.041672,1.000000 145.083328,1.000000 147.433502,1.368418 
	C151.140045,3.171561 154.465408,4.819507 157.947845,6.006662 
	C181.888046,14.167807 205.875198,22.191116 229.818954,30.341919 
	C247.901062,36.497334 265.941193,42.776119 284.000000,49.000000 
z"/>
<path fill="#E23237" opacity="1.000000" stroke="none" 
	d="
M140.933884,185.224777 
	C140.952209,223.504074 140.970535,261.783386 140.994431,300.531342 
	C139.933334,301.000000 138.866653,301.000000 137.741013,300.754425 
	C136.567596,299.579437 135.566132,298.447571 134.320786,297.752777 
	C124.750565,292.413361 115.106339,287.206635 105.535278,281.868683 
	C79.379662,267.281250 53.343304,252.475143 27.020031,238.197540 
	C22.326576,235.651825 21.274185,232.517639 20.924976,227.901962 
	C20.119991,217.262070 19.082777,206.634750 17.889868,196.030457 
	C16.389845,182.696136 14.603318,169.394272 13.013753,156.069672 
	C12.178267,149.066132 11.561651,142.036575 10.735798,135.031784 
	C9.200160,122.006668 7.545290,108.995605 6.013874,95.970016 
	C4.922433,86.686684 3.975988,77.386200 2.851560,68.107109 
	C2.798556,67.669701 1.642404,67.365974 1.000001,67.000000 
	C1.000000,61.311958 1.000000,55.623920 1.328487,49.754429 
	C2.451162,49.360203 3.265419,49.203342 4.036623,48.926537 
	C27.814207,40.391998 51.574940,31.810345 75.365685,23.312698 
	C93.623009,16.791494 111.928513,10.404966 130.173676,3.850246 
	C131.605621,3.335806 132.731735,1.970082 134.000000,0.999998 
	C136.041672,1.000000 138.083328,1.000000 140.562500,1.000000 
	C140.964951,12.450431 140.929886,23.900862 140.642883,36.062126 
	C111.712440,100.652122 83.033936,164.531281 54.202942,228.750092 
	C64.136818,228.750092 73.262970,228.617767 82.381569,228.822372 
	C85.543015,228.893280 87.060310,227.871689 88.203606,224.883606 
	C92.844139,212.755417 97.681671,200.699326 102.703117,188.724228 
	C103.356567,187.165878 105.481491,185.203964 106.959801,185.174362 
	C118.279617,184.947662 129.608093,185.153427 140.933884,185.224777 
z"/>

<path fill="#FEFDFD" opacity="1.000000" stroke="none" 
	d="
M141.402390,185.135803 
	C129.608093,185.153427 118.279617,184.947662 106.959801,185.174362 
	C105.481491,185.203964 103.356567,187.165878 102.703117,188.724228 
	C97.681671,200.699326 92.844139,212.755417 88.203606,224.883606 
	C87.060310,227.871689 85.543015,228.893280 82.381569,228.822372 
	C73.262970,228.617767 64.136818,228.750092 54.202942,228.750092 
	C83.033936,164.531281 111.712440,100.652122 140.628418,36.551212 
	C150.403946,56.481052 159.986923,76.611534 169.470764,96.788597 
	C189.509445,139.421280 209.497711,182.077667 229.497894,224.728439 
	C230.122330,226.060089 230.650101,227.437088 231.617279,229.726288 
	C229.312561,229.726288 227.603500,229.767227 225.897018,229.718277 
	C221.570190,229.594193 217.122208,228.712509 212.942825,229.425034 
	C203.062134,231.109543 198.478958,226.766983 195.491318,217.707428 
	C192.220566,207.789429 187.222519,198.451675 183.278336,188.738785 
	C182.061691,185.742645 180.457397,184.889359 177.358917,184.938858 
	C165.532013,185.127777 153.700623,185.034607 141.402390,185.135803 
M140.338089,99.819336 
	C132.143814,119.339729 123.949532,138.860123 115.546501,158.877777 
	C124.476364,158.877777 132.710220,158.877777 141.874451,159.051010 
	C151.076523,159.051010 160.278595,159.051010 169.912552,159.051010 
	C169.454971,157.807144 169.281876,157.188828 169.009598,156.617813 
	C160.231796,138.207947 151.452469,119.798782 142.628616,101.410980 
	C142.278931,100.682281 141.491547,100.163620 140.338089,99.819336 
z"/>
<path fill="#B53033" opacity="1.000000" stroke="none" 
	d="
M140.908096,99.547104 
	C141.491547,100.163620 142.278931,100.682281 142.628616,101.410980 
	C151.452469,119.798782 160.231796,138.207947 169.009598,156.617813 
	C169.281876,157.188828 169.454971,157.807144 169.912552,159.051010 
	C160.278595,159.051010 151.076523,159.051010 141.414001,158.503662 
	C140.938400,138.486588 140.923248,119.016846 140.908096,99.547104 
z"/>
<path fill="#E13439" opacity="1.000000" stroke="none" 
	d="
M140.623093,99.683220 
	C140.923248,119.016846 140.938400,138.486588 140.948807,158.417053 
	C132.710220,158.877777 124.476364,158.877777 115.546501,158.877777 
	C123.949532,138.860123 132.143814,119.339729 140.623093,99.683220 
z"/>
</svg>